<svg id="Capa_1" enable-background="new 0 0 512 512" height="512" viewBox="0 0 512 512" width="512" xmlns="http://www.w3.org/2000/svg"><g><path d="m256 0c-141.385 0-256 114.615-256 256 0 40.187 9.066 78.68 26.946 114.408 1.854 3.704 6.359 5.204 10.063 3.351 3.704-1.854 5.204-6.359 3.351-10.063-16.828-33.627-25.36-69.861-25.36-107.696 0-132.888 108.112-241 241-241s241 108.112 241 241-108.112 241-241 241c-81.069 0-156.236-40.419-201.071-108.123-2.287-3.453-6.942-4.4-10.394-2.112-3.454 2.287-4.399 6.94-2.112 10.394 47.62 71.91 127.463 114.841 213.577 114.841 141.385 0 256-114.615 256-256s-114.615-256-256-256z"/></g></svg>